<svg width="415" height="80" viewBox="0 0 415 80" fill="none" xmlns="http://www.w3.org/2000/svg">
<rect width="80" height="80" rx="10" fill="#5353EC"/>
<path fill-rule="evenodd" clip-rule="evenodd" d="M29.7535 54.1712C29.7494 54.1936 29.7453 54.2158 29.7414 54.2382C29.4645 55.7799 29.3713 56.9959 29.3838 57.8976C30.1202 57.4583 31.0582 56.7641 32.1681 55.7367C34.0299 54.0136 36.0795 51.6297 38.1308 48.7131C24.6444 48.3589 14 44.1879 14 39.0947C14 35.8373 18.3541 32.9571 25.021 31.2114C24.1342 33.1604 23.5689 35.3076 23.3988 37.574L23.3727 37.5835L23.3385 37.5962C21.9517 38.1107 20.9205 38.6323 20.1968 39.0947C20.9205 39.5571 21.9517 40.0788 23.3385 40.5934C27.3537 42.0828 33.242 43.1067 39.9937 43.1067C40.565 43.1067 41.1303 43.0993 41.6886 43.085C41.9717 42.5879 42.2526 42.0814 42.5308 41.5661C42.8138 41.0418 43.0879 40.5196 43.3531 40.0001C43.0878 39.4806 42.8136 38.9583 42.5307 38.4339C39.1548 32.1801 35.3816 27.2377 32.1679 24.2633C31.058 23.236 30.12 22.5416 29.3837 22.1025C29.3714 22.9878 29.4611 24.1761 29.7264 25.6784C27.9708 26.9655 26.5097 28.5602 25.3699 30.3546C23.4953 23.3826 23.6676 17.9791 26.2854 16.3625C30.4074 13.8171 39.1007 21.5831 46.1291 33.8885C47.4588 30.5411 48.3602 27.4608 48.8232 24.882C49.1001 23.3402 49.1933 22.1243 49.1808 21.2226C48.4577 21.6539 47.5404 22.3311 46.4567 23.328C44.5368 22.3454 42.515 21.7893 40.4922 21.6308C45.2 16.4084 49.6613 13.8662 52.2791 15.4827C56.1147 17.8513 54.7003 28.3502 49.2891 40.0001C49.6402 40.7559 49.9745 41.507 50.2915 42.2512C52.7202 41.8226 54.8686 41.2537 56.6488 40.5934C58.0356 40.0788 59.0668 39.5571 59.7906 39.0947C59.0799 38.6407 58.0729 38.1296 56.7239 37.6242C56.5595 35.3546 55.9988 33.2038 55.1158 31.2508C61.6983 33.0003 65.9873 35.8618 65.9873 39.0947C65.9873 42.7667 60.4547 45.9592 52.3132 47.5878C55.0705 55.9513 55.2541 62.6801 52.279 64.5173C49.6415 66.146 45.1324 63.553 40.3854 58.2505C42.4068 58.0973 44.428 57.5475 46.3482 56.5718C46.3643 56.5867 46.3804 56.6016 46.3964 56.6165C47.5063 57.6439 48.4443 58.3382 49.1807 58.7774C49.1932 57.8757 49.1 56.6598 48.8231 55.118C48.467 53.1347 47.8517 50.8549 46.9816 48.3851C46.2207 48.4637 45.4458 48.5297 44.6585 48.5826C37.9275 59.4357 30.1243 66.0079 26.2855 63.6375C23.648 62.0087 23.4929 56.5356 25.4129 49.4872C26.5476 51.2832 28.0034 52.8804 29.7535 54.1712ZM50.5305 20.6262C50.5305 20.6262 50.5183 20.6292 50.4963 20.6305C50.5199 20.6261 50.5305 20.6262 50.5305 20.6262ZM49.0025 19.708C48.9925 19.687 48.9888 19.6742 48.9888 19.6742C48.9888 19.6742 48.9942 19.684 49.0025 19.708ZM28.0341 58.494C28.0341 58.494 28.0463 58.491 28.0683 58.4896C28.0448 58.4941 28.0341 58.494 28.0341 58.494ZM29.5621 59.4121C29.5721 59.4332 29.5758 59.446 29.5758 59.446C29.5758 59.446 29.5704 59.4362 29.5621 59.4121ZM60.9484 40.0467C60.9484 40.0467 60.9398 40.037 60.9277 40.0172C60.9431 40.0369 60.9484 40.0467 60.9484 40.0467ZM60.9277 38.1722C60.9398 38.1525 60.9484 38.1427 60.9484 38.1427C60.9484 38.1427 60.9431 38.1527 60.9277 38.1722ZM19.039 38.1427C19.039 38.1427 19.0475 38.1525 19.0595 38.1722C19.0442 38.1527 19.039 38.1427 19.039 38.1427ZM19.0595 40.0172C19.0475 40.037 19.039 40.0467 19.039 40.0467C19.039 40.0467 19.0442 40.0369 19.0595 40.0172ZM29.5757 20.554C29.5757 20.554 29.572 20.5668 29.562 20.5878C29.5703 20.5638 29.5757 20.554 29.5757 20.554ZM28.0682 21.5103C28.0462 21.509 28.034 21.5061 28.034 21.5061C28.034 21.5061 28.0446 21.5059 28.0682 21.5103ZM48.9887 60.3258C48.9887 60.3258 48.9924 60.313 49.0024 60.2919C48.9941 60.316 48.9887 60.3258 48.9887 60.3258ZM50.5304 59.3738C50.5304 59.3738 50.5181 59.3709 50.4962 59.3694C50.5109 59.3723 50.5208 59.3735 50.5259 59.374C50.5291 59.3741 50.5304 59.3738 50.5304 59.3738Z" fill="white"/>
<path d="M138.288 24.7458C142.832 24.7458 146.49 26.2712 149.262 29.322C152.079 32.3729 153.488 36.8983 153.488 42.8983V66.3898H142.855V44.7288C142.855 41.4746 142.219 39.0593 140.946 37.4831C139.674 35.8559 137.834 35.0424 135.425 35.0424C132.745 35.0424 130.609 35.9831 129.018 37.8644C127.428 39.6949 126.633 42.4407 126.633 46.1017V66.3898H116V25.3559H126.156V30.161C127.564 28.4322 129.314 27.1102 131.404 26.1949C133.494 25.2288 135.789 24.7458 138.288 24.7458Z" fill="white"/>
<path d="M199.445 46.0254C199.445 46.178 199.377 47.2458 199.241 49.2288H171.5C172 51.7712 173.181 53.7797 175.044 55.2542C176.907 56.7288 179.225 57.4661 181.996 57.4661C183.905 57.4661 185.586 57.161 187.04 56.5508C188.54 55.8898 189.926 54.8729 191.198 53.5L196.855 60.3644C193.402 64.7881 188.358 67 181.724 67C177.589 67 173.931 66.1102 170.75 64.3305C167.569 62.5 165.116 59.9831 163.389 56.7797C161.662 53.5763 160.799 49.9407 160.799 45.8729C160.799 41.8559 161.639 38.2458 163.321 35.0424C165.047 31.7881 167.388 29.2712 170.341 27.4915C173.34 25.661 176.68 24.7458 180.361 24.7458C183.95 24.7458 187.199 25.6102 190.107 27.339C193.016 29.0678 195.288 31.5593 196.923 34.8136C198.605 38.017 199.445 41.7542 199.445 46.0254ZM180.429 33.7458C178.02 33.7458 175.998 34.5085 174.363 36.0339C172.727 37.5593 171.727 39.6441 171.364 42.2881H189.426C189.062 39.6949 188.063 37.6356 186.427 36.1102C184.791 34.5339 182.792 33.7458 180.429 33.7458Z" fill="white"/>
<path d="M243.467 25.3559V66.3898H233.379V61.5085C231.97 63.2881 230.289 64.661 228.335 65.6271C226.381 66.5424 224.268 67 221.996 67C217.18 67 213.363 65.4491 210.546 62.3475C207.728 59.2458 206.32 54.6441 206.32 48.5424V25.3559H216.953V46.7881C216.953 53.3983 219.429 56.7034 224.382 56.7034C226.927 56.7034 228.971 55.7881 230.516 53.9576C232.061 52.0763 232.834 49.3051 232.834 45.6441V25.3559H243.467Z" fill="white"/>
<path d="M276.969 64.4068C275.924 65.2712 274.628 65.9322 273.084 66.3898C271.584 66.7966 269.994 67 268.312 67C263.95 67 260.565 65.7542 258.157 63.2627C255.794 60.7712 254.612 57.1102 254.612 52.2797V35.4237H248.955V26.2712C248.955 26.2712 254.612 26.6709 254.612 23.5949C254.612 20.519 254.612 16.2797 254.612 16.2797H265.245V26.2712H274.379V35.4237H265.245V52.1271C265.245 53.8559 265.631 55.2034 266.404 56.1695C267.222 57.0847 268.358 57.5424 269.812 57.5424C271.493 57.5424 272.925 57.0339 274.106 56.0169L276.969 64.4068Z" fill="white"/>
<path d="M293.093 30.7712C294.365 28.7881 296.069 27.2881 298.205 26.2712C300.386 25.2542 302.885 24.7458 305.703 24.7458V35.7288C304.521 35.6271 303.726 35.5763 303.317 35.5763C300.273 35.5763 297.887 36.5424 296.16 38.4746C294.434 40.3559 293.57 43.2034 293.57 47.017V66.3898H282.937V25.3559H293.093V30.7712Z" fill="white"/>
<path d="M329.141 67C325.279 67 321.802 66.1102 318.713 64.3305C315.668 62.5 313.283 59.9831 311.556 56.7797C309.829 53.5763 308.966 49.9407 308.966 45.8729C308.966 41.8051 309.829 38.1695 311.556 34.9661C313.283 31.7627 315.668 29.2712 318.713 27.4915C321.802 25.661 325.279 24.7458 329.141 24.7458C333.003 24.7458 336.457 25.661 339.501 27.4915C342.546 29.2712 344.931 31.7627 346.658 34.9661C348.385 38.1695 349.248 41.8051 349.248 45.8729C349.248 49.9407 348.385 53.5763 346.658 56.7797C344.931 59.9831 342.546 62.5 339.501 64.3305C336.457 66.1102 333.003 67 329.141 67ZM329.141 57.2373C331.867 57.2373 334.094 56.2203 335.821 54.1864C337.593 52.1017 338.479 49.3305 338.479 45.8729C338.479 42.4153 337.593 39.6695 335.821 37.6356C334.094 35.5508 331.867 34.5085 329.141 34.5085C326.415 34.5085 324.165 35.5508 322.393 37.6356C320.621 39.6695 319.735 42.4153 319.735 45.8729C319.735 49.3305 320.621 52.1017 322.393 54.1864C324.165 56.2203 326.415 57.2373 329.141 57.2373Z" fill="white"/>
<path d="M378.643 24.7458C383.187 24.7458 386.845 26.2712 389.617 29.322C392.434 32.3729 393.843 36.8983 393.843 42.8983V66.3898H383.21V44.7288C383.21 41.4746 382.574 39.0593 381.302 37.4831C380.029 35.8559 378.189 35.0424 375.781 35.0424C373.1 35.0424 370.964 35.9831 369.374 37.8644C367.783 39.6949 366.988 42.4407 366.988 46.1017V66.3898H356.355V25.3559H366.511V30.161C367.92 28.4322 369.669 27.1102 371.759 26.1949C373.849 25.2288 376.144 24.7458 378.643 24.7458Z" fill="white"/>
<path d="M402.118 13H414.796L412.683 47.8559H404.231L402.118 13ZM408.457 67C406.594 67 405.026 66.339 403.754 65.0169C402.527 63.6441 401.913 61.9915 401.913 60.0593C401.913 58.1271 402.527 56.5254 403.754 55.2542C404.981 53.9322 406.548 53.2712 408.457 53.2712C410.365 53.2712 411.933 53.9322 413.16 55.2542C414.387 56.5254 415 58.1271 415 60.0593C415 61.9915 414.364 63.6441 413.092 65.0169C411.865 66.339 410.32 67 408.457 67Z" fill="white"/>
</svg>
